<?xml version="1.0" standalone="no"?><!DOCTYPE svg PUBLIC "-//W3C//DTD SVG 1.1//EN" "http://www.w3.org/Graphics/SVG/1.1/DTD/svg11.dtd"><svg t="1585807456671" class="icon" viewBox="0 0 1024 1024" version="1.1" xmlns="http://www.w3.org/2000/svg" p-id="2244" xmlns:xlink="http://www.w3.org/1999/xlink" width="200" height="200"><defs><style type="text/css"></style></defs><path d="M413.013333 498.346667L341.333333 570.026667l-6.826666-6.826667c-44.373333-44.373333-126.293333-44.373333-170.666667 0L34.133333 692.906667c-47.786667 47.786667-47.786667 126.293333 0 170.666666l37.546667 37.546667c23.893333 23.893333 54.613333 34.133333 85.333333 34.133333s61.44-13.653333 85.333334-34.133333l129.706666-129.706667c47.786667-47.786667 47.786667-126.293333 0-170.666666l-6.826666-6.826667 71.68-71.68c6.826667-6.826667 6.826667-17.066667 0-23.893333s-17.066667-3.413333-23.893334 0z m-64.853333 126.293333c34.133333 34.133333 34.133333 88.746667 0 122.88l-129.706667 129.706667c-34.133333 34.133333-92.16 34.133333-122.88 0l-37.546666-37.546667c-34.133333-34.133333-34.133333-88.746667 0-122.88l129.706666-129.706667c17.066667-17.066667 37.546667-27.306667 61.44-27.306666s44.373333 10.24 61.44 27.306666l6.826667 6.826667-40.96 40.96c-6.826667 6.826667-6.826667 17.066667 0 23.893333 3.413333 3.413333 6.826667 3.413333 13.653333 3.413334s10.24 0 13.653334-3.413334l40.96-40.96 3.413333 6.826667zM443.733333 98.986667c-3.413333-10.24-10.24-13.653333-20.48-13.653334-10.24 3.413333-13.653333 10.24-13.653333 20.48l51.2 204.8c3.413333 6.826667 10.24 13.653333 17.066667 13.653334h3.413333c10.24-3.413333 13.653333-10.24 13.653333-20.48l-51.2-204.8zM344.746667 348.16c3.413333 6.826667 10.24 10.24 13.653333 10.24 3.413333 0 6.826667 0 6.826667-3.413333 6.826667-3.413333 10.24-13.653333 6.826666-23.893334l-102.4-204.8c-3.413333-6.826667-13.653333-10.24-20.48-3.413333-10.24 3.413333-13.653333 13.653333-6.826666 20.48l102.4 204.8zM597.333333 310.613333l51.2-204.8c3.413333-10.24-3.413333-17.066667-13.653333-20.48-10.24-3.413333-17.066667 3.413333-20.48 13.653334l-51.2 204.8c-3.413333 10.24 3.413333 17.066667 13.653333 20.48h3.413334c6.826667 0 13.653333-6.826667 17.066666-13.653334zM692.906667 354.986667c3.413333 0 3.413333 3.413333 6.826666 3.413333 6.826667 0 13.653333-3.413333 13.653334-10.24l102.4-204.8c3.413333-6.826667 0-17.066667-6.826667-23.893333-6.826667-3.413333-17.066667 0-23.893333 6.826666l-102.4 204.8c-3.413333 10.24 0 20.48 10.24 23.893334zM989.866667 692.906667l-129.706667-129.706667c-44.373333-44.373333-126.293333-44.373333-170.666667 0l-6.826666 6.826667-71.68-71.68c-6.826667-6.826667-17.066667-6.826667-23.893334 0s-6.826667 17.066667 0 23.893333l71.68 71.68-10.24 6.826667c-47.786667 47.786667-47.786667 126.293333 0 170.666666l129.706667 129.706667c23.893333 23.893333 54.613333 34.133333 85.333333 34.133333s61.44-13.653333 85.333334-34.133333l37.546666-37.546667c47.786667-44.373333 47.786667-122.88 3.413334-170.666666z m-27.306667 150.186666l-37.546667 37.546667c-34.133333 34.133333-92.16 34.133333-122.88 0L675.84 750.933333c-34.133333-34.133333-34.133333-88.746667 0-122.88l6.826667-6.826666 40.96 40.96c3.413333 3.413333 6.826667 3.413333 13.653333 3.413333s10.24 0 13.653333-3.413333c6.826667-6.826667 6.826667-17.066667 0-23.893334l-40.96-40.96 6.826667-6.826666c17.066667-17.066667 37.546667-27.306667 61.44-27.306667s44.373333 10.24 61.44 27.306667l129.706667 129.706666c27.306667 30.72 27.306667 88.746667-6.826667 122.88z" p-id="2245"></path></svg>