<?xml version="1.0" standalone="no"?>
<!DOCTYPE svg PUBLIC "-//W3C//DTD SVG 20010904//EN"
 "http://www.w3.org/TR/2001/REC-SVG-20010904/DTD/svg10.dtd">
<svg version="1.0" xmlns="http://www.w3.org/2000/svg"
 width="130.000000pt" height="130.000000pt" viewBox="0 0 130.000000 130.000000"
 preserveAspectRatio="xMidYMid meet">

<g transform="translate(0.000000,130.000000) scale(0.100000,-0.100000)"
fill="#000000" stroke="none">
<path d="M505 1284 c-244 -52 -438 -249 -489 -497 -20 -96 -20 -158 0 -254 52
-252 246 -446 496 -497 97 -20 159 -20 256 0 250 51 444 245 496 497 20 96 20
158 0 255 -71 347 -411 569 -759 496z m345 -575 c69 -194 126 -358 128 -365 3
-11 -14 -14 -75 -14 l-79 0 -94 265 c-52 146 -96 265 -99 265 -3 0 -48 -119
-100 -265 l-94 -265 -79 0 c-60 0 -79 3 -76 13 3 6 61 171 129 364 l124 353
95 0 95 0 125 -351z m-161 -245 c34 -43 21 -102 -26 -123 -35 -16 -57 -14 -87
10 -33 26 -37 88 -6 119 31 31 93 27 119 -6z"/>
</g>
</svg>
