<svg t="1586832912403" class="icon" viewBox="0 0 1024 1024" version="1.1" xmlns="http://www.w3.org/2000/svg" p-id="7833" width="200" height="200"><path d="M511.939185 117.859128C294.343746 117.859128 117.12935 294.951895 117.12935 512.668963c0 217.717069 177.092766 394.809835 394.809835 394.809835 217.717069 0 394.809835-177.092766 394.809835-394.809835 0-217.717069-177.092766-394.809835-394.809835-394.809835m0 848.12353C416.338282 965.982658 327.54864 936.183395 254.327592 885.463832 170.768025 827.44649 107.520608 742.062478 77.599715 642.326167 65.315121 601.215346 58.74712 557.671933 58.74712 512.668963c0-76.261789 18.852595-148.14491 52.300748-211.270697 33.448153-63.125787 81.370234-117.494239 139.265946-158.60506 73.829196-52.544008 164.321653-83.316308 261.625371-83.316309 80.762086 0 156.780615 21.163559 222.460625 58.503861C817.716118 164.929802 884.612424 237.664331 924.506949 325.116047c26.150374 57.165934 40.745932 120.77824 40.745931 187.674546 0 89.154531-25.907115 172.47084-70.545195 242.651146-41.47571 65.315121-99.371422 119.318684-167.605654 156.172467-64.098824 34.664449-137.319872 54.368452-215.162846 54.368452z m0 0" fill="#666666" p-id="7834"></path></svg>