<svg t="1586832901455" class="icon" viewBox="0 0 1024 1024" version="1.1" xmlns="http://www.w3.org/2000/svg" p-id="7701" width="200" height="200"><path d="M512 2.3C230.5 2.3 2.3 230.5 2.3 512s228.2 509.7 509.7 509.7 509.7-228.2 509.7-509.7S793.5 2.3 512 2.3z m308.9 818.6C780.8 861 734 892.6 682 914.6c-53.8 22.8-111 34.3-170 34.3s-116.2-11.5-170-34.3c-52-22-98.8-53.5-138.9-93.7C163 780.8 131.4 734 109.4 682c-22.8-53.8-34.3-111-34.3-170s11.5-116.2 34.3-170c22-52 53.5-98.8 93.7-138.9C243.2 163 290 131.4 342 109.4c53.8-22.8 111-34.3 170-34.3s116.2 11.5 170 34.3c52 22 98.8 53.5 138.9 93.7C861 243.2 892.6 290 914.6 342c22.8 53.8 34.3 111 34.3 170s-11.5 116.2-34.3 170c-22 52.1-53.5 98.8-93.7 138.9z" p-id="7702"></path><path d="M734.5 341.9L439.7 636.7 289.5 486.5c-14.2-14.2-37.3-14.2-51.5 0s-14.2 37.3 0 51.5l176 176c7.1 7.1 16.4 10.7 25.7 10.7s18.6-3.6 25.7-10.7L786 393.4c14.2-14.2 14.2-37.3 0-51.5-14.2-14.2-37.3-14.2-51.5 0z" p-id="7703"></path></svg>