<svg t="1586751927728" class="icon" viewBox="0 0 1024 1024" version="1.1" xmlns="http://www.w3.org/2000/svg" p-id="4663" width="200" height="200"><path d="M654.9 964.5H369.1c-53.1 0-96.4-43.2-96.4-96.4V155.9c0-53.1 43.2-96.4 96.4-96.4h285.8c53.1 0 96.4 43.2 96.4 96.4v712.2c0 53.1-43.2 96.4-96.4 96.4z m-285.8-895c-47.6 0-86.4 38.7-86.4 86.4v712.2c0 47.6 38.7 86.4 86.4 86.4h285.8c47.6 0 86.4-38.7 86.4-86.4V155.9c0-47.6-38.7-86.4-86.4-86.4H369.1z" fill="red" p-id="4664"></path><path d="M445.2 613c-10.5 0-20.3-4.1-27.7-11.5-7.4-7.4-11.5-17.2-11.5-27.7s4.1-20.3 11.5-27.7l42.1-42.1c2-2 5.1-2 7.1 0s2 5.1 0 7.1l-42.1 42.1c-5.5 5.5-8.5 12.8-8.5 20.6s3 15.1 8.5 20.6 12.8 8.5 20.6 8.5c7.8 0 15.1-3 20.6-8.5l42.1-42.1c11.4-11.4 11.4-29.9 0-41.2l7.1-7.1c15.3 15.3 15.3 40.1 0 55.4l-42.1 42.1c-7.5 7.5-17.3 11.5-27.7 11.5z" fill="red" p-id="4665"></path><path d="M530.9 553.4c-2.2 0-4.2-1.4-4.8-3.6-0.8-2.7 0.8-5.4 3.4-6.2l57.3-16.3c15.5-4.4 24.4-20.6 20-36-4.4-15.5-20.6-24.4-36-20l-57.3 16.3c-7.5 2.1-13.7 7.1-17.5 13.9-3.8 6.8-4.7 14.7-2.6 22.2 0.8 2.7-0.8 5.4-3.4 6.2-2.7 0.8-5.4-0.8-6.2-3.4-5.9-20.8 6.2-42.5 26.9-48.4l57.3-16.3c20.8-5.9 42.5 6.1 48.4 26.9 5.9 20.8-6.2 42.5-26.9 48.4l-57.3 16.3c-0.4-0.1-0.8 0-1.3 0zM460.7 480.1c-1.2 0-2.5-0.5-3.4-1.4L428.2 451c-2-1.9-2.1-5.1-0.2-7.1 1.9-2 5.1-2.1 7.1-0.2l29.1 27.7c2 1.9 2.1 5.1 0.2 7.1-1.1 1.1-2.4 1.6-3.7 1.6zM486.1 474.7c-2.1 0-4.1-1.4-4.8-3.5l-16.5-53.7c-0.8-2.6 0.7-5.4 3.3-6.2 2.6-0.8 5.4 0.7 6.2 3.3l16.5 53.7c0.8 2.6-0.7 5.4-3.3 6.2-0.4 0.1-0.9 0.2-1.4 0.2zM512 463.8c-0.5 0-1-0.1-1.5-0.2-2.6-0.8-4.1-3.6-3.3-6.3l10.3-33.5c0.8-2.6 3.6-4.1 6.3-3.3 2.6 0.8 4.1 3.6 3.3 6.3l-10.3 33.5c-0.7 2.1-2.7 3.5-4.8 3.5z" fill="red" p-id="4666"></path></svg>