<svg t="1586756339538" class="icon" viewBox="0 0 1024 1024" version="1.1" xmlns="http://www.w3.org/2000/svg" p-id="6391" width="200" height="200"><path d="M185.0624 326.7072h653.8752c34.0736 0 34.6368 17.6384 61.696 59.4944L1024 582.5024v279.68A60.6208 60.6208 0 0 1 962.304 921.6H61.696A60.6208 60.6208 0 0 1 0 862.1824V583.68l123.3664-197.6064c32.9984-47.2832 27.6736-59.3664 61.696-59.3664z" fill="#004591" p-id="6392"></path><path d="M197.4016 358.8352h641.536l123.3664 226.0992H635.8784s16.3584 153.6-123.8784 153.6c-140.6464 0-122.4192-153.6-122.4192-153.6H61.696z" fill="#FFFFFF" p-id="6393"></path><path d="M509.952 76.8h4.096a16.2304 16.2304 0 0 1 16.2304 16.2304v110.6176a16.2304 16.2304 0 0 1-16.2304 16.2304h-4.096a16.2304 16.2304 0 0 1-16.2304-16.2304V93.0304A16.2304 16.2304 0 0 1 509.952 76.8z" fill="#004591" p-id="6394"></path><path d="M237.5936 145.3056a18.9952 18.9952 0 0 1 26.1632 0l78.5152 75.7248a17.408 17.408 0 0 1 0 25.2416 18.9952 18.9952 0 0 1-26.1632 0L237.5936 170.5472a17.408 17.408 0 0 1 0-25.2416z" fill="#004591" p-id="6395"></path><path d="M786.4064 145.3056a17.408 17.408 0 0 1 0 25.2416L707.8912 246.272a18.9952 18.9952 0 0 1-26.1632 0 17.408 17.408 0 0 1 0-25.2416l78.592-75.7248a18.9952 18.9952 0 0 1 26.0864 0z" fill="#004591" p-id="6396"></path></svg>