<?xml version="1.0" standalone="no"?><!DOCTYPE svg PUBLIC "-//W3C//DTD SVG 1.1//EN" "http://www.w3.org/Graphics/SVG/1.1/DTD/svg11.dtd"><svg t="1585736385637" class="icon" viewBox="0 0 1118 1024" version="1.1" xmlns="http://www.w3.org/2000/svg" p-id="2204" xmlns:xlink="http://www.w3.org/1999/xlink" width="218.359375" height="200"><defs><style type="text/css"></style></defs><path d="M84.458299 416.761801c3.020832 0 6.066662-0.399978 9.133491-1.198933l173.835324-46.568408a35.198041 35.198041 0 0 0 24.845617-43.082602c-5.03772-18.748956-24.231651-29.760343-43.082602-24.861616l-91.846887 24.631629C229.085248 171.20447 384.028623 70.310086 557.555964 70.310086c212.638164 0 395.216001 151.497567 434.100836 360.227949a35.157043 35.157043 0 0 0 40.987719 28.123434 35.137044 35.137044 0 0 0 28.128434-40.988718C1015.678463 175.657222 804.039244 0.001 557.555964 0.001c-198.982924 0-376.847023 114.446629-461.174329 290.246844L69.151151 188.529506c-5.03772-18.748956-24.277649-29.761343-43.077602-24.866616a35.188041 35.188041 0 0 0-24.865616 43.077602l49.313255 183.981759c4.197766 15.702126 18.420975 26.038551 33.938111 26.03855zM1117.698784 795.942695l-49.307255-183.951761c-5.012721-18.726958-24.25865-29.765343-43.052604-24.850617l-173.834323 46.569408a35.183042 35.183042 0 0 0-24.861616 43.077602c5.03772 18.747956 24.25765 29.785342 43.072602 24.865616l98.108539-26.330534c-66.161317 165.688777-229.517224 278.364505-410.263163 278.364505-213.400121 0-396.065953-152.101533-434.38682-361.672868-3.491806-19.126935-21.891781-31.788231-40.896724-28.265427a35.157043 35.157043 0 0 0-28.265427 40.885725c44.433527 243.006473 256.189739 419.366656 503.543971 419.366656 202.377735 0 385.750528-122.054206 467.127998-303.461108l25.091603 93.603789a35.172042 35.172042 0 0 0 43.057603 24.881615 35.188041 35.188041 0 0 0 24.865616-43.082601z" p-id="2205"></path></svg>